<?xml version="1.0" encoding="utf-8"?>
<!-- Generator: Adobe Illustrator 18.0.0, SVG Export Plug-In . SVG Version: 6.00 Build 0)  -->
<!DOCTYPE svg PUBLIC "-//W3C//DTD SVG 1.1//EN" "http://www.w3.org/Graphics/SVG/1.1/DTD/svg11.dtd" [
	<!ENTITY st0 "fill:#FFFFFF;">
	<!ENTITY st1 "fill:#FFFFFF;">
	<!ENTITY st2 "fill:#FFFFFF;stroke:#FFFFFF;stroke-width:4;stroke-linecap:round;stroke-linejoin:round;stroke-miterlimit:10;">
	<!ENTITY st3 "fill:none;stroke:#FFFFFF;stroke-width:7;stroke-linecap:round;stroke-linejoin:round;stroke-miterlimit:10;">
	<!ENTITY st4 "fill:none;stroke:#FFFFFF;stroke-width:5;stroke-linecap:round;stroke-linejoin:round;stroke-miterlimit:10;">
	<!ENTITY st5 "fill:#FFFFFF;stroke:#FFFFFF;stroke-width:3;stroke-linecap:round;stroke-linejoin:round;stroke-miterlimit:10;">
	<!ENTITY st6 "fill:none;stroke:#FFFFFF;stroke-miterlimit:10;">
	<!ENTITY st7 "fill:none;">
	<!ENTITY st8 "fill:none;stroke:#FFFFFF;stroke-width:5;stroke-miterlimit:10;">
]>
<svg version="1.1" id="Layer_1" xmlns="http://www.w3.org/2000/svg" xmlns:xlink="http://www.w3.org/1999/xlink" x="0px" y="0px"
	 viewBox="0 0 64 24" xml:space="preserve">
<g>
	<path style="&st0;" d="M54.7,13.7c-1.6,1.1-2.6,1.6-2.9,1.6c-0.1,0-0.3,0-0.3-0.1c0,0,0-0.1-0.1-0.1c0-0.1,0-0.1,0-0.2
		c0,0,0-0.1,0-0.2c0-0.1,0-0.1,0-0.1c0-0.7,0.9-2.9,2.6-6.4c0.8-1.6,1.1-2.4,1.1-2.6c0-0.2-0.2-0.2-0.5-0.2l-2,0.2
		c-1.2,0-2.1-0.2-2.6-0.7c0.3-0.1,0.5-0.4,0.7-0.8c0.2-0.4,0.3-0.8,0.3-1.1c0-0.6-0.2-0.9-0.7-0.9c-1,0-1.7,0.3-2.3,0.9
		c-0.6,0.6-0.9,1.3-0.9,2c0,0.1,0,0.2,0.1,0.4c0.4,0.7,1.3,1.2,2.6,1.6L46.3,11c-2,2.1-3.4,4.2-3.9,4.2c-0.2,0-0.4-0.2-0.4-0.7
		c0-0.5,0.2-1.7,0.6-3.7c0.2-0.7,0.3-1.4,0.5-2.1c0.2-0.7,0.2-1.1,0.2-1.1c-0.9-0.3-1.5-0.4-2.1-0.4c-1.1,0-2.1,0.2-3.1,0.7
		c-1,0.4-1.9,1-2.6,1.7c-0.7,0.7-1.3,1.5-1.7,2.4c-0.2,0.5-0.4,0.9-0.5,1.4c0,0-0.1,0.1-0.1,0.1c-0.8,0.8-1.3,1.2-1.4,1.3
		c-0.2,0.1-0.3,0.2-0.4,0.2c-0.1,0-0.2-0.1-0.2-0.3c0-0.2,0.3-1.1,0.9-2.8c0.6-1.7,0.9-2.8,0.9-3.3c0-1-0.4-1.4-1.2-1.4
		c-0.5,0-1.1,0.2-1.7,0.5C29.5,8,29,8.4,28.5,9c-1,1.1-1.8,2.3-2.4,3.3c0.3-0.9,0.7-2.3,1.3-4.3h-0.8c-0.5,0-0.9-0.1-1.2,0
		c-0.3,0.1-0.5,0.3-0.7,0.7c-0.4,1-0.8,2.4-1.3,4.5c0,0,0,0,0,0c-0.1,0.1-0.2,0.1-0.2,0.2c-0.6,0.6-1.1,1.1-1.5,1.5
		c-0.4,0.4-0.9,0.7-1.4,1.1c-0.5,0.3-1,0.5-1.3,0.5c-1.4,0-2.1-0.9-2.1-2.8c0-0.7,0.2-1.4,0.5-2.2c0.3,0.4,0.6,0.8,1,1
		c0.4,0.2,0.8,0.3,1.2,0.3c0.9,0,1.8-0.3,2.5-1c0.7-0.7,1.1-1.5,1.1-2.4c0-1.4-1-2.2-2.9-2.2c-1.1,0-2.2,0.3-3.1,1
		c-0.9,0.7-1.6,1.6-2.1,2.7c-0.5,1.1-0.7,2.2-0.7,3.4c0,0.7,0.1,1.2,0.3,1.7c0.5,1.2,1.6,1.8,3.4,1.8c0.9,0,1.9-0.4,2.9-1.1
		c0.6-0.5,1.3-0.8,2-1.5c-0.2,1.1-0.3,1.7-0.3,2.7H25c0.3-2,0.9-3,1.7-4.9c0.4-0.9,0.9-1.8,1.4-2.5c0.5-0.6,1-1,1.5-1
		c0.1,0,0.2,0,0.3,0.2c0.1,0.1,0.1,0.3,0.1,0.6c0,0.3-0.2,0.8-0.5,1.5c-0.3,0.8-0.6,1.6-0.9,2.6c-0.3,1-0.5,1.8-0.5,2.5s0.3,1,0.9,1
		c0.3,0,1-0.4,2-1.2c0.6-0.5,1.2-1,1.9-1.7c0,0.3,0,0.5,0.1,0.8c0.2,1.4,0.8,2.1,1.8,2.1c0.8,0,1.6-0.3,2.4-0.8c0.8-0.5,1.5-1.2,2-2
		c-0.1,0.4-0.1,0.8-0.1,1.2c0,1.1,0.3,1.6,0.9,1.6c0.4,0,1.1-0.4,2.2-1.2c1.1-0.8,2.5-2.8,3.7-4.1c0.7-0.7,1.8-1.9,2.6-2.6
		c0.8-0.8,1.6-1.5,2.2-2.1c0,0.1-0.2,0.5-0.5,1.2c-0.3,0.7-0.6,1.3-0.8,1.9c-0.2,0.6-0.5,1.2-0.8,1.9c-0.3,0.7-0.5,1.3-0.7,1.9
		c-0.2,0.5-0.2,1-0.2,1.4c0,0.4,0.1,0.8,0.4,1.3c0.2,0.4,0.6,0.7,1.1,0.7c1,0,3.3-1.1,7.5-4.9c2.1-1.9,3.3-3,5.9-4l0,0
		C59.3,10,56.4,12.5,54.7,13.7z M18.6,9.2c0.2-0.2,0.5-0.4,0.8-0.6c0.3-0.2,0.7-0.2,1-0.2c0.4,0,0.6,0.1,0.8,0.3
		c0.2,0.2,0.3,0.5,0.3,1s-0.2,1-0.5,1.5c-0.3,0.5-0.8,0.7-1.2,0.7c-0.7,0-1.4-0.4-2.1-1.2C17.9,10.1,18.2,9.7,18.6,9.2z M39.6,14.2
		c-0.4,0.4-0.9,0.8-1.4,1.2c-0.5,0.4-0.9,0.5-1.3,0.5c-0.8,0-1.2-0.6-1.2-1.8c0-0.9,0.2-1.7,0.7-2.7c0.5-0.9,1.1-1.7,2-2.3
		c0.8-0.6,1.7-0.9,2.6-0.9L39.6,14.2z"/>
	<path style="&st0;" d="M11.5,10.5c-5.3-4.4,1.8-8.4,6.7-6.9C13.2-0.1,1.7,4.3,8,9.4c6.5,5.3-2.2,8.1-6.6,12.1
		C6.4,17.8,17.9,15.8,11.5,10.5z"/>
</g>
</svg>
